<svg width="40" height="40" viewBox="0 0 40 40" fill="none" xmlns="http://www.w3.org/2000/svg">
<path d="M5 19.1667C4.99426 21.3664 5.50822 23.5365 6.5 25.5C7.67594 27.8529 9.48375 29.8319 11.7209 31.2155C13.9581 32.599 16.5363 33.3323 19.1667 33.3333C21.3664 33.3391 23.5365 32.8251 25.5 31.8333L35 35L31.8333 25.5C32.8251 23.5365 33.3391 21.3664 33.3333 19.1667C33.3323 16.5362 32.599 13.9581 31.2155 11.7209C29.832 9.48374 27.8529 7.67593 25.5 6.49999C23.5365 5.50821 21.3664 4.99425 19.1667 4.99999H18.3333C14.8594 5.19164 11.5783 6.65792 9.1181 9.11808C6.65794 11.5782 5.19165 14.8594 5 18.3333V19.1667Z" stroke="#0A210F" stroke-width="2" stroke-linecap="round" stroke-linejoin="round"/>
<circle cx="11.2" cy="16" r="2" fill="#0A210F"/>
<circle cx="22.8" cy="16" r="2" fill="#0A210F"/>
<path d="M10.8 20C11.4765 20.2188 12.4509 20.4745 13.6 20.6915M13.6 20.6915C16.3018 21.2016 19.9692 21.498 23 20.6C22.8 24.2 21.64 30.56 18.6 27.2C15.56 23.84 14 21.461 13.6 20.6915Z" stroke="#0A210F" stroke-width="2"/>
</svg>
