<svg width="145" height="99" viewBox="0 0 145 99" fill="none" xmlns="http://www.w3.org/2000/svg">
<rect x="41" y="17" width="102" height="80" rx="6" stroke="black" stroke-width="4"/>
<path d="M8.37326e-05 18.8889C-0.0100488 21.822 0.897934 24.7153 2.65008 27.3334C4.72758 30.4706 7.92136 33.1093 11.8737 34.954C15.826 36.7986 20.3808 37.7764 25.0278 37.7778C28.9141 37.7854 32.7478 37.1002 36.2167 35.7778L53 40L47.4056 27.3334C49.1577 24.7153 50.0657 21.822 50.0556 18.8889C50.0538 15.3817 48.7582 11.9442 46.314 8.96127C43.8698 5.97839 40.3735 3.56799 36.2167 2.00006C32.7478 0.677687 28.9141 -0.00758391 25.0278 6.33068e-05H23.5556C17.4184 0.2556 11.6217 2.21064 7.27538 5.49085C2.9291 8.77106 0.33867 13.1459 8.37326e-05 17.7778V18.8889Z" fill="black"/>
<circle cx="71" cy="49" r="5" fill="black"/>
<circle cx="101" cy="45" r="5" fill="black"/>
<path d="M65.4801 72.0688L83.5 67.2173M83.5 67.2173L117.48 58.0688C117.487 68.5459 114 88.2 100 83C86 77.8 83.1667 70.3115 83.5 67.2173Z" stroke="black" stroke-width="4"/>
</svg>
